<?xml version="1.0" encoding="utf-8"?>
<!-- Generator: Adobe Illustrator 23.0.0, SVG Export Plug-In . SVG Version: 6.00 Build 0)  -->
<svg version="1.1" id="Capa_1" xmlns="http://www.w3.org/2000/svg" xmlns:xlink="http://www.w3.org/1999/xlink" x="0px" y="0px"
	 viewBox="0 0 147.4 209.76" style="enable-background:new 0 0 147.4 209.76;" xml:space="preserve">
<style type="text/css">
	.st0{fill:#FEFEFE;}
	.st1{fill:#EDEDE9;}
	.st2{fill:#013256;}
	.st3{fill:#A69C99;}
	.st4{fill:#A99F9C;}
	.st5{fill:#A69B98;}
	.st6{fill:#A9A89F;}
	.st7{fill:#A8A79E;}
	.st8{fill:#A79D9A;}
	.st9{fill:#A79C99;}
	.st10{fill:#A69D9A;}
	.st11{fill:#A79D99;}
	.st12{fill:#A79E9A;}
	.st13{fill:#073458;}
	.st14{fill:#A5A39E;}
	.st15{fill:#A6A39F;}
	.st16{fill:#989691;}
	.st17{fill:#A29F9B;}
	.st18{fill:#AAA09D;}
	.st19{fill:#244265;}
	.st20{fill:#0E395C;}
	.st21{fill:#A3A09B;}
	.st22{fill:#16375D;}
	.st23{fill:#A39A97;}
	.st24{fill:#062751;}
	.st25{fill:#AFAAA8;}
	.st26{fill:#001E4B;}
	.st27{fill:#16355C;}
	.st28{fill:#234769;}
	.st29{fill:#999792;}
	.st30{fill:#2B496B;}
	.st31{fill:#A09E99;}
	.st32{fill:#13365C;}
	.st33{fill:#1C3C61;}
	.st34{fill:#A69C98;}
	.st35{fill:#18385E;}
	.st36{fill:#A59B98;}
	.st37{fill:#EFEFED;}
	.st38{fill:#A6A29D;}
	.st39{fill:#EEEEEE;}
	.st40{fill:#072550;}
	.st41{fill:#C2C9CD;}
	.st42{fill:#9A9893;}
	.st43{fill:#04244F;}
	.st44{fill:#9F9C98;}
	.st45{fill:#05244F;}
	.st46{fill:#516E88;}
	.st47{fill:#7A92A5;}
	.st48{fill:#10385D;}
	.st49{fill:#DDDDDD;}
	.st50{fill:#27486A;}
	.st51{fill:#00234D;}
	.st52{fill:#CBCBCB;}
	.st53{fill:#476580;}
	.st54{fill:#DBE0E3;}
	.st55{fill:#0E3C5E;}
	.st56{fill:#E6E6E3;}
	.st57{fill:#00254E;}
	.st58{fill:#0D395C;}
	.st59{fill:#053458;}
	.st60{fill:#A9A79F;}
	.st61{fill:#435E7D;}
	.st62{fill:#E3E3E1;}
	.st63{fill:#BCB8B5;}
	.st64{fill:#AAA4A0;}
	.st65{fill:#A19E9A;}
	.st66{fill:#A9A5A1;}
	.st67{fill:#284669;}
	.st68{fill:#2F4E6F;}
	.st69{fill:#052550;}
	.st70{fill:#A9A6A2;}
	.st71{fill:#1E3E62;}
	.st72{fill:#375674;}
	.st73{fill:#1F4768;}
	.st74{fill:#183B5F;}
	.st75{fill:#023256;}
	.st76{fill:#EEF1F3;}
	.st77{fill:#678198;}
	.st78{fill:#9D9C97;}
	.st79{fill:#9D9A96;}
	.st80{fill:#9E9C97;}
	.st81{fill:#9B9993;}
	.st82{fill:#E4E4E2;}
	.st83{fill:#FDFDFD;}
	.st84{fill:#ABA39F;}
	.st85{fill:#FAFAFA;}
	.st86{fill:#EAEEF1;}
	.st87{fill:#DADFE1;}
	.st88{fill:#E1E5E8;}
	.st89{fill:#E3E9ED;}
	.st90{fill:#EFF0F2;}
	.st91{fill:#859BAD;}
</style>
<g>
	<g>
		<path class="st0" d="M-144,207.76c-20,0-40-0.05-60,0.07c-2.5,0.01-3.07-0.57-3.06-3.07c0.08-66,0.11-132-0.06-198
			c-0.01-4.02,2.1-2.99,4.12-2.99C-61,3.76,81,3.76,223,3.76c43.5,0,87,0.04,130.5-0.08c2.98-0.01,3.59,0.6,3.58,3.58
			c-0.11,65.5-0.12,131,0.01,196.5c0.01,3.42-0.67,4.1-4.1,4.1c-155.33-0.11-310.67-0.09-466-0.09
			C-123.33,206.92-133.67,206.92-144,207.76z"/>
		<path class="st1" d="M-144,207.76c1.62-1.72,3.73-0.94,5.61-0.96c6.92-0.09,13.84-0.07,20.76-0.01c1.58,0.01,3.34-0.55,4.63,0.98
			C-123.33,207.76-133.67,207.76-144,207.76z"/>
		<path class="st2" d="M70.95,114.8c0.1,4.99,0.03,9.99,0.35,14.97c0.21,3.32-1.21,3.65-3.77,2.73
			c-7.52-2.69-14.08-6.64-20.48-11.71C29.93,107.2,26.29,78.44,37.03,59.94c6.73-11.6,16.6-19.18,29.15-23.49
			c5.97-2.05,2.3,3.42,4.2,5.19c1.47-4.7,4.95-6.51,9.56-6.75c4.72-0.25,8.34,1.44,10.99,6.02c-0.85-6.43,2.19-5.57,6-4.24
			c23.28,8.18,37.37,29.16,34.89,52.95c-0.08,0.8-0.42,1.56-0.64,2.35c-1.33-2.29-0.36-4.77-0.73-7.14
			c0.53,2.36-0.74,4.87,0.73,7.15c-1.59,17.77-17.92,36.28-35.49,40.38c-1.96,0.46-2.74,0.28-2.71-1.91
			c0.06-3.83-0.08-7.66-0.14-11.49c-0.56-3.32-0.39-6.64-0.12-9.97c2.01-3.96,6.5-5.32,8.99-9.06c10.21-15.31,3.39-32.41-8.88-38.5
			c-3.03-2.37-1.29-6.13-2.6-8.95c-1.76,1.85-3.45,3.75-6.25,3.83c-2-0.33-4-0.32-6,0.01c-3.03-0.2-5.17-2.02-7.21-3.95
			c-1.3,2.72,0.19,5.81-1.21,8.48c-2.23,2.71-5.22,4.62-7.55,7.24c-9.73,10.94-7.92,27.98,3.93,36.46c1.35,0.97,2.82,1.78,3.8,3.2
			c0.95,1.76,0.94,3.59,0.43,5.45c-1.44,4.79-0.28,9.67-0.65,13.34c0.3,1.82,1.17,0.87,0.59,1.19c-0.25,0.14-0.4,0.06-0.43-0.25
			c-0.31-4.1-0.18-8.2-0.07-12.3C69.93,114.55,70.38,114.44,70.95,114.8z"/>
		<path class="st3" d="M-70.03,109.78c0,16.99-0.1,33.99,0.08,50.98c0.04,3.79-1.22,4.97-4.89,4.83
			c-6.16-0.23-12.33-0.17-18.49-0.02c-3.11,0.08-4.5-0.8-4.49-4.2c0.14-30.65,0.15-61.3,0.19-91.96c0-3.49,0.07-6.98-0.18-10.45
			c-0.25-3.54,0.78-5.19,4.69-5.03c6.32,0.27,12.67,0.25,18.99,0c3.44-0.13,4.14,1.22,4.12,4.37c-0.13,17.16-0.06,34.32-0.06,51.48
			C-70.06,109.78-70.04,109.78-70.03,109.78z"/>
		<path class="st3" d="M-144.09,166.73c-8.53,1.77-17.16,0.49-25.74,0.7c-3.27,0.08-2.14-2.81-2.15-4.55
			c-0.07-25.15-0.06-50.29-0.08-75.44c0-4.16,0.15-8.33-0.05-12.49c-0.15-3.2,0.9-4.44,4.26-4.31c6.82,0.25,13.65,0.23,20.48,0.11
			c2.82-0.05,4.2,0.48,4.18,3.78c-0.11,29.81-0.06,59.62-0.07,89.43c0,0.99,0.1,2.02-0.82,2.74c-7.44-0.98-14.92-0.32-22.37-0.37
			c-2.87-0.02-4.13-0.56-4.11-3.82c0.11-28.94,0.07-57.89,0.05-86.83c0-0.46,0.34-0.76-0.01-1.18c0,17.55,0,35.09,0,52.64
			c0,11.48,0.14,22.96-0.08,34.43c-0.07,3.62,0.75,4.9,4.64,4.83C-158.68,166.26-151.37,165.75-144.09,166.73z"/>
		<path class="st4" d="M335.01,188.73c-1.66,0.04-3.33,0.12-4.99,0.12c-168.13,0.01-336.27,0.02-504.4-0.01
			c-1.94,0-4.79,1.05-4.72-2.57c0.07-4.01,3.29-2.54,5.23-2.54c127.81-0.07,255.62-0.06,383.42-0.06c39.83,0,79.65,0,119.48,0.01
			c2,0,3.99,0.1,5.99,0.16C335.74,185.47,335.75,187.1,335.01,188.73z"/>
		<path class="st3" d="M288.05,164.66c-1.39-1.38-0.78-3.15-0.78-4.73c-0.04-33.72-0.05-67.45,0.02-101.17
			c0-1.77-1.13-4.15,1.65-5.11c7.34-1.9,14.66-2.41,21.93,0.35c0.02,35.73,0.04,71.45,0.04,107.18c0,1.25,0.5,2.7-0.9,3.64
			C302.7,163.74,295.37,164.12,288.05,164.66z"/>
		<path class="st5" d="M-130.95,108.78c0.96-13.17,1.95-26.34,2.86-39.52c0.14-2.05,1.33-2.42,2.97-2.44
			c0.56,0.37,1.19,0.57,1.81,0.78c2.04,0.24,4.07,0.43,5.96-0.66c1.96-0.63,3.84-0.45,5.65,0.51c2.11,1.54,4.42,0.97,6.72,0.61
			c0.75-0.04,1.43,0.13,1.96,0.71c0.3,12.33-1.51,24.53-2.31,36.79c-1.32,20.38-3.15,40.73-4.76,61.09
			c-0.35,0.38-0.74,0.44-1.16,0.12c-0.43-0.56-0.23-1.22-0.3-1.83c-0.31,0.33-0.23,0.84-0.56,1.18c-0.69,0.72-1.5,1.21-2.45,1.51
			c-1.51,0.35-2.98,0.41-4.33-0.5c-0.33-0.38-0.45-0.82-0.39-1.31c0.43-0.49,1.04-0.46,1.62-0.52c-0.34-0.58-0.8-0.02-0.99,0.05
			c-2.79,1.09-5.86,0.33-8.66,1.35c-1.73,0.25-3.45,0.49-4.79-1.03c-0.23-1.63,0.75-1.51,1.9-1.36c-2.6-0.58-4.75-1.66-5.16-4.63
			c-0.15-0.67-0.19-1.32,0.25-1.91c1.1-6.02,0.44-12.23,2.01-18.2c0.35,0.36,0.68,0.83,0.46,1.27c-0.27,0.54-0.04,0.54-0.04,0.13
			C-132.43,130.23-130.24,119.58-130.95,108.78z"/>
		<path class="st3" d="M329.76,114.29c0,20.64-0.08,41.29,0.08,61.93c0.03,3.69-0.98,4.85-4.77,4.82
			c-12.04-0.08-11.99,0.07-11.99-11.9c0-38.79,0.06-77.58-0.16-116.37c-0.03-4.8,1.15-6.21,6.03-6.03
			c10.81,0.39,10.82,0.11,10.82,11.11C329.76,76.67,329.76,95.48,329.76,114.29z"/>
		<path class="st5" d="M264.16,166.53c-1.41-11.53-2.82-23.06-4.23-34.6c-1.06-1.94,0.3-4.24-0.9-6.16
			c-2.01-14.62-4.03-29.24-6.03-43.87c-0.45-3.29-0.39-6.71-1.32-9.84c-1.26-4.22,0.34-5.45,4.21-6.07
			c11.86-1.92,11.69-2.01,13.14,9.94c1.73,14.32,3.78,28.6,5.66,42.91c0.21,1.64,0.19,3.3,0.27,4.96c-0.93,1.25-0.23,2.54-0.28,2.78
			c0.31,1.69,0.89,0.86,0.24,0.98c-0.32,0.06-0.43-0.3-0.39-0.69c0.06-0.47,0.14-0.91,0.54-1.22c1.83,6.59,2.27,13.38,2.89,20.15
			c-0.88,1.25-0.26,2.54-0.29,2.73c0.32,1.74,0.9,0.91,0.25,1.03c-0.32,0.06-0.43-0.3-0.39-0.69c0.06-0.47,0.14-0.91,0.54-1.22
			c1.55,4.87,1.51,10,2.32,14.99c0.63,3.85-3.52,1.24-4.35,3.15c-0.66,0.83-1.59,1.03-2.56,1.15c-1.56,0.15-3.18-0.11-4.68,0.55
			c-0.61,0.29-1.24,0.55-1.9,0.7C265.62,168.23,264.7,167.68,264.16,166.53z"/>
		<path class="st5" d="M232.05,166.68c-0.07-32.46-0.12-64.93-0.24-97.39c-0.01-2.49,0.72-3.43,3.37-3.58
			c12.95-0.73,12.95-0.82,12.95,11.96c0,27.97,0.03,55.94-0.04,83.92c0,1.89,1.22,4.57-2.06,5.32
			C241.34,168.78,236.67,169.05,232.05,166.68z"/>
		<path class="st6" d="M207.87,164.7c3.77-5.85,7.34-11.84,11.4-17.48c2.08-2.89,2.89-5.74,2.86-9.21
			c-0.12-14.63-0.09-29.27,0-43.91c0.01-1.54-1.09-4.2,1.81-4.21c2.64-0.01,3.28,2.03,3.27,4.55c-0.11,27.77-0.14,55.54-0.19,83.32
			c-0.6,1.69-1.56,2.56-3.59,2.54c-9.57-0.11-19.14-0.24-28.7,0.04c-3.86,0.11-2.9-2.63-3.59-4.51c0.39-0.26,0.85-0.82,1.17-0.74
			c6.81,1.59,10.49-2.46,13.63-7.5C207.6,167.31,207.65,165.95,207.87,164.7z"/>
		<path class="st7" d="M-57.81,144.71c6.99,10.12,13.98,20.25,20.96,30.37c3.1,1.12,6.81-1.44,9.58,1.61
			c0.06,0.37,0.12,0.74,0.18,1.11c-0.5,1.5-1.18,2.5-3.1,2.48c-9.58-0.08-19.16-0.04-28.74-0.04c-1.61,0-3.04-0.38-3.54-2.07
			c-0.5-1.73,0.39-2.83,1.99-3.41c4.02-1.15,8.33,0.84,12.25-1.11c-2.7-5.44-6.68-10.03-9.69-15.21c-0.72-0.7-1.55-0.38-2.38-0.24
			c-1.42,0.05-2-0.54-2.21-2.02c-0.43-3.13-0.62-6.27-0.49-9.42c0.07-1.58-0.49-3.57,1.61-4.27
			C-59.46,141.85-59.01,143.99-57.81,144.71z"/>
		<path class="st8" d="M299.39,34.79c1.83-0.01,3.66-0.01,5.49-0.01c6.4,0.01,6.93,0.71,6.18,7.23c-0.22,1.86-0.95,2.71-2.77,2.71
			c-5.99,0-11.98,0-17.97,0c-3.72,0-3.05-2.78-3.07-5c-0.02-2.26-0.54-4.96,3.15-4.93C293.4,34.82,296.4,34.8,299.39,34.79z"/>
		<path class="st9" d="M-157.65,62.76c-3.66,0-7.32-0.16-10.97,0.05c-3.16,0.18-3.5-1.46-3.42-3.99c0.08-2.3-0.13-4.29,3.21-4.23
			c7.48,0.14,14.96,0.14,22.44,0c3.39-0.06,3.08,2.06,3.18,4.28c0.12,2.55-0.36,4.13-3.48,3.94C-150.33,62.6-154,62.76-157.65,62.76
			z"/>
		<path class="st10" d="M-118.64,50.89c4.31,0.29,9.43,0.69,14.56,0.97c2.11,0.11,3.36,1.16,2.72,3.1
			c-0.66,2.01,1.13,5.83-2.91,5.66c-6.78-0.28-13.53-1.15-20.31-1.64c-3.27-0.24-2.41-2.5-2.37-4.35c0.05-1.99-0.06-4.21,3.02-3.99
			C-122.44,50.75-120.94,50.79-118.64,50.89z"/>
		<path class="st9" d="M-96.91,44.57c-2.38-7.77-1.56-8.97,6.2-8.97c4.64,0,9.27,0,13.91,0c7.47,0,8.52,1.65,5.79,9.14
			C-79.64,43.8-88.27,44.16-96.91,44.57z"/>
		<path class="st11" d="M-96,180.76c-3.4-1.41-1.64-4.24-1.41-6.32c0.24-2.17,2.54-1.62,4.1-1.63c5.78-0.05,11.55-0.02,17.33-0.02
			c6.58,0,7.35,1.23,4.96,7.88C-79.34,180.01-87.68,179.86-96,180.76z"/>
		<path class="st8" d="M-114.97,180.67c-6.26-0.38-12.52-0.84-18.78-1.09c-2.77-0.11-2.75-1.67-2.46-3.66
			c0.26-1.82-0.52-4.33,2.76-4.05c6.73,0.58,13.54,0.73,20.17,1.91c4.68,0.83,2.01,4.33,1.27,6.87c-0.97-1.47-0.33-2.95-0.43-3.94
			C-112.62,177.99-112.16,180.41-114.97,180.67z"/>
		<path class="st8" d="M-170.99,180.68c-2.27-5.81-1.68-6.87,3.94-6.89c6.14-0.02,12.28-0.02,18.41,0c5.72,0.02,6.33,0.94,4.55,6.79
			C-153.06,180.11-162.03,179.89-170.99,180.68z"/>
		<path class="st5" d="M-57.81,144.71c-3.35-1.85-4.73-1.06-4.24,2.91c0.34,2.74,0.32,5.53,0.39,8.3c0.07,2.78,1.58,1.05,2.6,0.89
			c2.36,4.45,1.81,9.02,0.51,13.61c-0.8,0.78-1.82,0.45-1.89-0.33c-0.45-4.9-3-9.41-2.62-14.45c-0.09-0.23-0.1-0.46-0.03-0.69
			c-0.88-4.77-0.33-9.59-0.36-14.38c-0.09-15.27-0.05-30.55-0.01-45.82c0-1.62-0.44-3.33,0.48-4.87c1.32,0.01,2.63,0.02,3.95,0.04
			c1.03,2.21,0.47,4.55,0.48,6.82c0.06,14.04,0.02,28.08,0.05,42.13c0,1.63-0.34,3.31,0.39,4.89
			C-58.01,144.06-57.91,144.38-57.81,144.71z"/>
		<path class="st8" d="M289,180.77c-3.41-1.4-1.61-4.31-1.52-6.42c0.09-2.34,2.52-1.58,4.03-1.61c4.49-0.1,8.98-0.04,13.46-0.03
			c6.6,0.01,7.32,1.15,5.02,7.97C302.99,179.92,295.99,179.92,289,180.77z"/>
		<path class="st12" d="M254.12,48.88c2.3-0.27,4.6-0.58,6.9-0.79c1.58-0.14,3.74-0.96,4.34,1.12c0.66,2.28,1.47,4.86-0.04,7.16
			c-0.29,0.43-1.55,0.23-2.36,0.32c-0.82-0.7-1.84-0.38-2.76-0.46c-0.64-0.06-0.96,0.53-0.34,0.3c0.04-0.02,0.18,0.2,0.27,0.31
			c-3.14,1.49-6.62,1-9.89,1.75c-0.36-0.34-0.74-0.66-0.92-1.14C246.87,50.94,247.53,49.76,254.12,48.88z"/>
		<path class="st13" d="M91.99,108.83c-5-0.04-10-0.08-14.99-0.11c-0.27-0.2-0.54-0.38-0.85-0.43c-2.34-0.38-5.49,0.6-5.3-3.66
			c0.18-3.92,2.95-3.58,5.53-3.72c5.01,0.63,10.02,1.4,13.62-3.59c0.74-1.02,2.01-1.19,2.83,0.29
			C93.43,101.42,94.31,105.24,91.99,108.83z"/>
		<path class="st12" d="M282.07,176.14c0.82,2.38-0.46,3.13-2.37,3.37c-3.43,0.43-6.89,0.72-10.3,1.29
			c-3.65,0.61-3.4-2.09-3.91-4.25c-0.7-2.93,1.34-3.33,3.38-3.63c2.77-0.4,5.57-0.61,8.33-1.05
			C280.73,171.3,282.74,172.27,282.07,176.14z"/>
		<path class="st3" d="M247.79,57.54c-2.83,0.04-5.65,0.1-8.48,0.11c-7.83,0.01-7.83,0-7.18-7.88c4.32-1.03,8.71-0.29,13.06-0.45
			c3.57-0.13,2.39,3.24,3.48,4.94C248.95,55.5,248.95,56.68,247.79,57.54z"/>
		<path class="st14" d="M-83.87,48.7c3.48-0.01,6.95-0.04,10.43,0.01c1.38,0.02,3.29-0.51,3.25,1.85c-0.03,1.81-1.56,1.95-2.89,1.96
			c-7.28,0.04-14.57,0.02-21.85,0.01c-1.2,0-2.48-0.21-2.56-1.71c-0.09-1.79,1.25-2.11,2.69-2.11C-91.16,48.7-87.51,48.7-83.87,48.7
			z"/>
		<path class="st11" d="M232.04,178.78c-1.05-4.31,0.9-5.65,4.95-5.19c1.95,0.22,3.95,0.03,5.93,0.04c5.72,0.04,6.56,1.49,4.07,7.11
			c-3.5-1.08-7.09-0.23-10.63-0.49C234.79,180.14,233.01,180.66,232.04,178.78z"/>
		<path class="st15" d="M288.03,51.68c-1.02-1.99-1.06-3.72,1.72-3.77c6.27-0.12,12.55-0.02,18.82-0.06
			c2.06-0.01,2.49,1.19,2.41,2.89c-0.47,0.68-0.89,1.63-1.76,1.65C302.15,52.59,295.03,53.81,288.03,51.68z"/>
		<path class="st16" d="M-158.37,68.78c-3.83,0-7.65,0.02-11.48-0.01c-1.05-0.01-2.05-0.33-1.91-1.68c0.11-1.04,1-1.24,1.85-1.24
			c7.99-0.02,15.97-0.02,23.96,0c1.04,0,2.1,0.27,1.9,1.64c-0.19,1.3-1.36,1.27-2.34,1.28c-3.99,0.02-7.99,0.01-11.98,0.01
			C-158.37,68.77-158.37,68.77-158.37,68.78z"/>
		<path class="st17" d="M-83.65,169.87c-3.65,0-7.3,0.04-10.95-0.02c-1.05-0.02-2.62,0.48-2.78-1.21c-0.14-1.58,1.24-1.74,2.43-1.74
			c7.47-0.02,14.93-0.01,22.4,0c1.01,0,2.17,0.1,2.28,1.37c0.16,1.81-1.35,1.57-2.43,1.59C-76.35,169.9-80,169.87-83.65,169.87z"/>
		<path class="st18" d="M-118.1,65.93c-2.33-0.13-4.65-0.24-6.98-0.4c-1.06-0.07-2.05-0.3-1.72-1.74c0.21-0.92,0.18-2.03,1.7-1.88
			c7.43,0.74,14.86,1.42,22.28,2.22c0.33,0.04,0.55,1.06,0.81,1.63c-1.59,2.52-4.27,2.67-6.58,2.17
			C-111.75,67.25-115.04,67.08-118.1,65.93z"/>
		<path class="st19" d="M84.04,168.84c-0.55,3.07-0.3,6.98-4.69,6.96c-4.04-0.02-4.3-3.59-4.31-6.61c0-3.37,0.27-7.37,4.8-7.23
			C83.77,162.08,83.57,165.92,84.04,168.84z"/>
		<path class="st20" d="M58.71,162.78c2.2,3.4,0.95,7.3,1.26,10.92c0.13,1.57-2.74,2.15-4.74,2.2c-2.11,0.05-2.39-1.15-2.32-2.83
			c0.13-3.43,0.2-6.86,0.3-10.29C55.04,162.02,56.88,162.01,58.71,162.78z"/>
		<path class="st21" d="M298.87,169.87c-2.98,0-5.96,0.03-8.94-0.02c-0.93-0.01-2.18,0.18-2.32-1.2c-0.12-1.23,0.84-1.72,1.92-1.73
			c6.45-0.03,12.91-0.03,19.36-0.02c0.86,0,1.72,0.29,1.83,1.28c0.14,1.36-0.89,1.63-1.92,1.65c-3.31,0.04-6.62,0.01-9.93,0.01
			C298.87,169.86,298.87,169.86,298.87,169.87z"/>
		<path class="st22" d="M112.89,144.78c-0.25-4.44,3.02-3.67,5.32-3.1c1.88,0.47,0.9,1.59-0.44,2.07c-2.76,1-3,2.04-0.01,3.02
			c1.24,0.41,1.79,1.6,0.8,2.04c-7.81,3.46,0.87,3.53,1.17,5.23c-5.27,2.5-6.36,1.96-6.84-3.29
			C111.25,148.77,111.92,146.77,112.89,144.78z"/>
		<path class="st23" d="M-59.02,175.75c-1.09,0.14-2.53-0.25-2.75,1.41c-0.19,1.4,0.78,2.42,1.97,2.43
			c10.3,0.04,20.6-0.02,30.9-0.17c0.61-0.01,1.21-1.05,1.82-1.61c0.53,2.5-0.69,3.15-2.99,3.14c-10.1-0.07-20.19-0.09-30.29,0.01
			c-2.63,0.03-3.65-1-3.38-3.52c0.28-2.59-0.68-5.29,0.68-7.79c0.73,0.32,1.14,1.01,1.71,1.51c0.9,0.72,2.53-0.18,3.07,1.36
			C-57.89,173.74-58.1,174.83-59.02,175.75z"/>
		<path class="st24" d="M38.21,163.78c0.82-3.43,3.38-1.61,5.16-1.51c1.59,0.09,1.76,1.64,1.67,3.07c-0.13,2.15-0.46,4.13,0.84,6.36
			c1,1.71-0.47,3.43-2.94,3.09c-0.31-0.34-0.54-0.75-0.81-1.13c0.21,0.42,0.56,0.72,0.92,1.02c-0.93,2.16-2.59,0.99-4.02,0.88
			C37.72,171.7,39.18,167.65,38.21,163.78z"/>
		<path class="st25" d="M-62.98,89.87c-0.04,21.69-0.08,43.38-0.11,65.07c-0.97-1.12-0.75-2.49-0.75-3.79
			c-0.01-19.2-0.01-38.4,0.01-57.6C-63.83,92.29-64.25,90.86-62.98,89.87z"/>
		<path class="st26" d="M109.11,175.64c-0.27-4.11,1.5-7.71,1.86-11.51c0.14-1.43,0.94-1.43,2-1.38c1.02,0.05,2.13,0.03,2.13,1.39
			c0,3.52,0.63,6.89,1.96,10.14c0.14,0.33-0.09,1.06-0.38,1.26c-0.3,0.21-0.98,0.15-1.34-0.05
			C111.81,173.53,111.39,173.51,109.11,175.64z"/>
		<path class="st27" d="M61.38,142.69c-6.44,1.35-6.04,3.1-2.51,5.47c1.52,1.02,1.57,2.83,1,4.51c-0.53,1.56-1.79,2.38-3.36,2.53
			c-1.23,0.12-3.02,0.63-3.28-1.14c-0.28-1.85,1.58-0.95,2.49-1.34c3.33-1.42,0.98-2.53-0.3-3.62c-1.76-1.51-2.96-3.25-1.74-5.59
			C55.04,140.88,57.2,141.12,61.38,142.69z"/>
		<path class="st28" d="M100.78,166.75c0.74-2.29,1.78-4.33,4.44-4.81c0.93-0.17,2.15-0.49,2.62,0.66c0.53,1.31-0.68,1.39-1.53,1.9
			c-3.48,2.08-3.58,6.55-0.26,8.6c0.78,0.49,2.21,0.41,1.83,1.78c-0.43,1.51-1.87,1.09-2.92,0.9c-1.28-0.23-2.5-0.76-3.74-1.17
			c-0.21-0.15-0.42-0.3-0.63-0.45c-0.6-0.89-0.75-1.91-0.8-2.95C99.71,169.65,100.22,168.19,100.78,166.75z"/>
		<path class="st29" d="M-144.34,170.51c-4.28,1.08-8.69,0.35-13.04,0.51c-4.13,0.15-8.28,0.13-12.41,0.23
			c-0.9,0.02-1.75-0.05-1.85-1.09c-0.12-1.18,0.87-1.21,1.68-1.21c8.53-0.02,17.05-0.01,25.58-0.01
			C-144.36,169.46-144.35,169.99-144.34,170.51z"/>
		<path class="st30" d="M87.53,161.79c2.7,0.22,6.22-0.86,2.67,3.69c-1.32,1.7-0.43,5.11-0.59,7.73c-0.06,1.08,0.29,2.63-1.47,2.56
			c-1.65-0.07-1.25-1.57-1.43-2.66c-0.52-3.17,0.99-6.32-1.98-9.59C82.81,161.38,86.99,162.93,87.53,161.79z"/>
		<path class="st5" d="M253.91,64.73c-1.38-0.08-2.76,0.31-2.93-1.42c-0.13-1.3,0.87-1.74,1.87-1.89c3.94-0.59,7.88-1.11,11.83-1.61
			c1.07-0.14,2.08,0.13,2.21,1.4c0.14,1.32-0.9,1.6-1.93,1.77C261.19,63.58,257.42,64.17,253.91,64.73z"/>
		<path class="st25" d="M-58.11,143.74c-1.53-1.51-0.89-3.44-0.89-5.19c-0.05-16.22-0.03-32.43-0.02-48.65
			c1.59,1.5,0.83,3.44,0.84,5.16C-58.11,111.29-58.13,127.52-58.11,143.74z"/>
		<path class="st31" d="M-130.95,108.78c1.47,1.33,1.01,3.11,0.91,4.69c-0.63,10.09-1.37,20.18-2.09,30.54
			c-1.47-1.48-0.59-3.07-0.96-4.44C-133.12,129.26-131.87,119.03-130.95,108.78z"/>
		<path class="st2" d="M98.75,163.76c-5.07,1.92-1.88,3.43,0.25,4.99c0.1,0.19,0.2,0.38,0.29,0.57c-0.05,0.43-0.24,0.78-0.54,1.08
			c-0.57,0.53-1.09,1.07-0.57,1.94c0.28,0.35,0.53,0.71,0.78,1.07c-0.34,3.4-0.89,3.58-5.78,1.96c0.43-4.24-0.87-8.59,0.74-12.76
			C95.53,163.01,97.4,162.29,98.75,163.76z"/>
		<path class="st32" d="M122.62,163.97c-3.89,1.03-1.9,2.21-0.1,3.41c1.88,1.25,3.34,2.77,2.86,5.29c-0.37,1.89-1.79,2.77-3.48,3.08
			c-1.18,0.21-2.89,0.82-3.22-1.12c-0.31-1.85,1.23-1.16,2.26-1.43c3.06-0.8,1.68-2.04,0.12-3.18c-2.78-2.05-4.62-4.25-1.13-7.28
			c1.03-0.63,2.14-0.54,3.24-0.31c0.7,0.15,1.07,0.54,0.67,1.33C123.5,164.44,123.03,163.94,122.62,163.97z"/>
		<path class="st33" d="M67.98,143.75c-4.12,1.67-1.16,5.21-2.02,7.74c-0.42,1.24,1.01,3.5-1.31,3.59c-2.27,0.08-1.65-2.19-1.5-3.47
			c0.41-3.57-0.35-6.81-2.14-9.86c1.88-0.89,3.88-0.45,5.81-0.37C68.33,141.43,68.74,142.39,67.98,143.75z"/>
		<path class="st34" d="M239.49,63.82c-2.07-0.92-6.83,1.91-6.94-1.73c-0.09-2.88,4.7-0.91,7.27-1.34c1.93-0.32,3.97-0.06,5.96-0.02
			c1.01,0.02,2.09,0.14,2.15,1.47c0.07,1.35-0.97,1.59-2.01,1.61C243.93,63.85,241.94,63.82,239.49,63.82z"/>
		<path class="st1" d="M288.03,51.68c7.64-0.51,15.37,1.09,22.95-0.93c-0.04,1.08-0.08,2.16-0.12,3.25
			c-7.31-0.12-14.62-0.23-21.93-0.35C288.64,52.99,288.34,52.33,288.03,51.68z"/>
		<path class="st35" d="M43.91,152.51c0.39-2.01-1.06-2.69-2.3-3.87c-2.16-2.06-2.58-4.73,0.34-6.65c1.31-0.86,3.65-1.43,4.3,0.36
			c0.72,1.97-1.89,1.03-2.77,1.8c-0.37,0.33-0.79,0.61-1.18,0.9c0.9,2.85,6.08,3.47,4.33,7.37c-0.84,1.88-2.75,4.24-5.8,2.67
			C40.14,152.21,43.54,154.14,43.91,152.51z"/>
		<path class="st7" d="M-59.1,171.83c-0.98,0.29-2.04,3.75-2.91-0.08c-0.9-2.83-0.43-5.62-0.33-8.22c-0.98,1.42,0.7,3.75-0.75,5.38
			c-1.15-4.43-1.21-8.86,0.03-13.29c2.42,4.74,3.15,9.92,3.97,15.08c0.22,0.25,0.29,0.5,0.22,0.75
			C-58.95,171.7-59.02,171.83-59.1,171.83z"/>
		<path class="st2" d="M109.3,153.89c-5.23,2.49-6.08,2.03-6.11-3.3c-0.01-1.65,0.21-3.34-0.04-4.96c-0.57-3.63,1.29-3.66,3.87-2.86
			c0.31,0.34,0.48,0.74,0.49,1.2c-0.09,2.76-1.09,5.61,0.91,8.14C108.84,152.64,109.07,153.26,109.3,153.89z"/>
		<path class="st36" d="M191.13,175.83c0.89,2.97,2.54,4.19,5.96,4.05c8.22-0.35,16.47-0.18,24.71-0.07
			c2.12,0.03,3.86-0.36,5.21-2.05c0.49,2.48-0.69,3.2-3.01,3.19c-9.99-0.07-19.99-0.09-29.98,0
			C189.69,180.98,190.83,178.24,191.13,175.83z"/>
		<path class="st37" d="M-118.1,65.93c3.68-0.58,7.23,0.7,10.86,0.77c1.81,0.03,3.67,0.35,5.24-0.95c-0.33,1.01-0.67,2.01-1,3.02
			c-0.69,0.04-1.38,0.09-2.07,0.13c-2.32,0.34-4.66,0.95-6.91-0.31c-1.93-1.19-4.04-0.63-6.1-0.66c-2,0.41-4,0.7-5.95-0.21
			c-0.36-0.3-0.72-0.6-1.08-0.9C-122.8,66.29-120.26,67.62-118.1,65.93z"/>
		<path class="st2" d="M51.14,168.87c-1.13,2.43,1.26,6.5-1.71,6.56c-2.97,0.06-1.36-4-1.31-6.07c0.06-2.27-1.98-6.52,1.56-6.55
			C52.5,162.8,49.54,167.08,51.14,168.87z"/>
		<path class="st38" d="M267.04,167.66c0.24-0.3,0.48-0.6,0.72-0.9c1.96,0.03,3.92,0.02,5.87,0.01c1.45,0.24,2.84-0.84,4.31-0.21
			c0.98,0.31,2.59-0.42,2.78,1.21c0.15,1.4-1.37,0.98-2.15,1.4c-2.69,1.45-5.91-0.03-8.58,1.55c-0.67,0.6-1.51,0.58-2.31,0.52
			c-1.07-0.08-2.5,0.45-2.93-1.05C264.22,168.31,266.01,168.27,267.04,167.66z"/>
		<path class="st26" d="M96.05,146.64c2.38,1.87,0.66,4.89,2.02,7.2c0.63,1.07-1.39,1.55-1.78,0.72c-2.27-4.8-3.89-1.17-5.85,1.17
			c-0.94-4.15,0.49-7.02,1.57-9.95c0.71-0.35,1.14,0.05,1.53,0.56c0.36,0.36,0.19,1.41,1.22,0.94
			C95.14,146.93,95.54,146.66,96.05,146.64z"/>
		<path class="st39" d="M-132.24,164.88c1.64,1.15,3.51,0.67,5.3,0.74c0.97-0.52,1.99-0.36,3.01-0.19c1.68,0.58,3.64-0.01,5.18,1.2
			c1.6,0,3.21-0.01,4.81-0.01c0.84-0.36,1.66-0.59,2.18,0.49c-1.11,2.41-3.36,1.78-5.29,2.01c-2.83,0.12-5.65-0.14-8.47-0.38
			c-0.84-0.01-1.67-0.02-2.5-0.13c-2.26-0.92-5.08,0.19-7-1.94c-1.32-2.96-1.62-5.92-0.06-8.9c0.07,0.67,0.15,1.33,0.22,2
			C-134.61,161.79-133.93,163.6-132.24,164.88z"/>
		<path class="st40" d="M66.29,173.68c0.63-0.08,1.37-0.27,1.64,0.5c0.33,0.96-0.14,1.67-1.15,1.6c-1.23-0.08-2.64,0.66-3.66-0.54
			c-0.83-0.98-0.17-12.34,0.78-13.16c0.12-0.11,0.75,0.38,1.15,0.59C66.53,166.22,64.2,170.2,66.29,173.68z"/>
		<path class="st41" d="M67.98,143.75c-1.2-4.61-4.76-0.99-6.98-2c2.99-1.85,5.99-1.28,8.98,0c1.24,1.28,1.34,2.91,1.37,4.55
			c0.03,0.5,0.03,1.01,0.02,1.52c-0.87,3.92,0.91,6.07,4.63,6.94c-5.53,2.42-6.87,1.63-7.09-3.82
			C68.81,148.53,69.84,145.93,67.98,143.75z"/>
		<path class="st42" d="M-170.99,180.68c0.11-0.63,0.22-1.25,0.33-1.88c8.51,2.25,17.22,0.11,25.78,1.23
			c0.28,0.04,0.53,0.36,0.79,0.55C-153.06,181.21-162.02,181.02-170.99,180.68z"/>
		<path class="st43" d="M73.36,168.82c-0.67,2.27,1.13,6.61-1.12,6.51c-3.3-0.16-1.36-4.29-1.4-6.58c-0.04-2.17-1.62-6.3,1.2-6.28
			C74.73,162.48,72.59,166.61,73.36,168.82z"/>
		<path class="st44" d="M-127.96,167.73c0.67,0.06,1.33,0.12,2,0.17c2.98,0.8,6.02,0.18,9.02,0.38c2.26,0.61,5.17-1.51,6.82,1.63
			c-1.76,1.89-3.91,0.72-5.91,0.78c-2.63-1.14-5.53,0.25-8.17-0.83c-1.6-0.06-3.2-0.11-4.8-0.17c-0.34-0.27-0.53-0.61-0.59-1.04
			c0.04-0.42,0.2-0.8,0.49-1.12C-128.67,167.35-128.3,167.43-127.96,167.73z"/>
		<path class="st26" d="M48.63,148.31c0.83-2.17-1.14-6.31,1.4-6.27c2.74,0.04,1.19,4.06,1.19,6.29c0,2.22,1.53,6.26-1.18,6.29
			C47.5,154.65,49.45,150.5,48.63,148.31z"/>
		<path class="st16" d="M-96.91,44.57c8.64-1.24,17.28-1.52,25.9,0.17C-79.64,44.94-88.28,45.25-96.91,44.57z"/>
		<path class="st16" d="M-96,180.76c6.38-2.23,12.96-0.61,19.44-0.88c1.74-0.07,4.06-1.71,5.55,0.79
			C-79.34,180.7-87.67,180.73-96,180.76z"/>
		<path class="st45" d="M76,101.77c-0.77,1.72-4.03-1.21-4.14,2.58c-0.1,3.58,2.45,2.59,4.03,3.41c0.42,0.22,0.74,0.63,1.1,0.96
			c-1.63,0.08-3.26,0.16-4.89,0.23c-4.41-3.18-2.45-7.14-1.34-11C73.9,97.3,75.4,98.91,76,101.77z"/>
		<path class="st26" d="M107.01,143.62c0.01-0.28,0.01-0.56,0-0.84c2.35-0.48,4.09-0.08,4.07,2.84c1.13,1.75,1.17,3.49-0.03,5.23
			c-0.5,1.06-0.45,2.44-1.74,3.04c-0.46-0.44-0.92-0.88-1.37-1.32C107.04,149.65,107.8,146.55,107.01,143.62z"/>
		<path class="st42" d="M288.05,164.66c5.31-1.96,10.81-0.4,16.21-0.89c1.97-0.18,4.24,0.63,5.75-1.86c0,0.96,0,1.93,0,2.89
			C302.69,165.1,295.36,165.39,288.05,164.66z"/>
		<path class="st42" d="M289,180.77c3.73-2.1,7.78-0.54,11.65-1c2.74-0.32,5.52,0.49,8.26-1.06c1.38-0.78,0.8,1.22,1.09,1.97
			C302.99,180.71,295.99,180.74,289,180.77z"/>
		<path class="st46" d="M91.99,108.83c-0.02-3.96-0.05-7.92-0.07-11.88c2.61-0.22,2.14,1.91,2.37,3.31
			c0.45,2.73-0.03,5.49-0.05,8.24c-2.42,3.22-0.18,7.07-1.41,10.45C92.55,115.58,92.27,112.2,91.99,108.83z"/>
		<path class="st47" d="M71.91,97.84c-1.48,3.73-1.49,7.43,0.19,11.11c-1.76,1.68-0.22,4.01-1.15,5.85
			c-0.28-0.07-0.55-0.17-0.81-0.28c-0.78-0.56-0.68-1.17-0.08-1.79c0.79-1.89-1-3.17-1.15-4.83c-0.47-3.06-0.74-6.15,0.03-9.16
			C69.33,97.22,70.02,95.12,71.91,97.84z"/>
		<path class="st12" d="M247.85,54.77c-0.45-4.61-3.24-5.57-7.36-5.07c-2.75,0.33-5.57,0.06-8.37,0.06
			c5.13-2.21,10.45-0.67,15.69-0.85C248.77,50.86,249.17,52.81,247.85,54.77z"/>
		<path class="st48" d="M75.99,154.75c-6.36,0.59-6.36,0.59-5.88-7.01c0.63-0.55,1.35-0.85,2.19-0.82c0.9,0.67,2.94-0.32,2.77,1.9
			l0,0c-1.36,0.5-2.85,0.7-2.61,2.86c0.26,2.34,2.52,1.02,3.38,2.13C76.1,154.09,76.15,154.4,75.99,154.75z"/>
		<path class="st49" d="M247.85,54.77c-0.01-1.95-0.03-3.9-0.04-5.85c2.1-0.01,4.2-0.02,6.3-0.03c-7.36,0.81-3.75,6.01-3.87,9.71
			c-0.82-0.35-1.64-0.7-2.45-1.05C247.81,56.62,247.83,55.69,247.85,54.77z"/>
		<path class="st50" d="M85.57,148.95c-0.47,1.36-0.94,2.72-1.41,4.08c-0.81-2.76-1.57,0.76-2.36,0.02
			c-0.8-0.96-0.99-2.07-0.82-3.27c-0.08-1,0.2-1.82,1.13-2.34c2.7,2.19,1.19-2.27,2.81-1.78c1.06,0,1.95,0.33,2.46,1.34
			c0.11,0.76,0.13,1.5-0.43,2.12C86.46,149.38,86,149.32,85.57,148.95z"/>
		<path class="st51" d="M81.16,145.7c0.6,0.11,0.97,0.4,0.86,1.07c-3.12,1.91-2.15,5.32-2.95,8.09c-0.73,0.72-1.45,0.05-1.43-0.4
			c0.2-4.22-0.63-8.57,1.36-12.6C80.36,142.78,79.56,144.92,81.16,145.7z"/>
		<path class="st29" d="M232.04,178.78c4.21,1.86,8.62,0.84,12.94,0.78c1.13-0.01,1.88-0.17,2.02,1.18
			c-3.98,0.06-7.97,0.15-11.95,0.16C233.6,180.91,231.84,181.18,232.04,178.78z"/>
		<path class="st3" d="M247.99,168.78c0.11,0.88,0.19,1.75-1.03,1.91c-4.91-1.25-10,0.43-14.91-0.91c-0.09-0.33-0.09-0.65-0.01-0.98
			C237.35,166.95,242.67,167.43,247.99,168.78z"/>
		<path class="st52" d="M247.99,168.78c-5.32,0.01-10.64,0.01-15.96,0.02c-0.01-0.34-0.02-0.68-0.02-1.01
			c4.67-0.89,9.35-0.68,14.03-0.09C246.83,167.8,247.65,167.86,247.99,168.78z"/>
		<path class="st16" d="M232.04,169.77c4.96,0.51,10.05-1.1,14.91,0.91C241.99,170.37,236.89,172.12,232.04,169.77z"/>
		<path class="st26" d="M86.97,148.78c0-0.66,0-1.32,0-1.98c-0.66-1.34-1.33-2.68,1-3.03c0.23,3.05,0.44,6.1,0.71,9.14
			c0.12,1.31,0.05,2.33-1.7,1.9C86.25,152.8,86.26,150.79,86.97,148.78z"/>
		<path class="st1" d="M246.04,167.69c-4.68,0.03-9.35,0.06-14.03,0.09c0.01-0.37,0.02-0.73,0.04-1.1
			c4.66,0.07,9.32,0.14,13.99,0.21C246.02,167.16,246.02,167.42,246.04,167.69z"/>
		<path class="st53" d="M79.07,154.86c0.93-2.72-2.77-7.12,2.95-8.09c0,0,0.25,0.3,0.25,0.3s-0.15,0.36-0.15,0.36
			c0.09,1,0.02,1.93-1.13,2.34C79.03,150.97,80.85,153.59,79.07,154.86z"/>
		<path class="st54" d="M93.18,175.36c1.12,0.13,2.24,0.37,3.37,0.37c0.88,0,2.16,0.47,2.48-0.79c0.43-1.71-1.56-1.22-2.17-2.03
			c2.66-2.23,3.2,0.49,4.34,1.84c0,0,0.01-0.12,0.01-0.12C98.78,177.55,96.11,177.84,93.18,175.36z"/>
		<path class="st55" d="M70.11,146.77c-0.04-1.67-0.09-3.35-0.13-5.02c1.25-0.08,2.49-0.2,3.74-0.23c0.93-0.02,1.5,0.46,1.32,1.44
			c-0.2,1.05-1.12,0.85-1.86,0.91c-0.35,0.19-0.63,0.44-0.87,0.76C71.67,145.44,71.94,147.18,70.11,146.77z"/>
		<path class="st56" d="M267.04,167.66c-0.27,1.01-2.5,1.18-1.52,2.47c1.06,1.38,2.97,0.26,4.47,0.59c-5.3,2.06-6.02,1.54-5.84-4.19
			C265.12,166.91,266.08,167.28,267.04,167.66z"/>
		<path class="st57" d="M96.05,146.64c-0.28,0.38-0.55,0.76-0.83,1.13c-0.73-0.26-1.08-0.85-1.31-1.54
			c-0.91-1.32-2.2-2.57-0.88-4.34C98.35,140.74,95.44,144.81,96.05,146.64z"/>
		<path class="st58" d="M38.21,163.78c1.73,3.82,0.4,7.86,0.81,11.77C37.02,171.74,38.42,167.7,38.21,163.78z"/>
		<path class="st59" d="M87.97,143.77c-1.17,0.73-0.92,1.94-1,3.03c-0.86-0.07-1.63-0.29-2.04-1.15c-0.99-1.24-0.65-2.76,0.32-3.37
			C85.97,141.82,87.76,141.98,87.97,143.77z"/>
		<path class="st58" d="M66.29,173.68c-2.76-3.41-0.77-7.35-1.25-11.01C66.83,166.18,64.71,170.14,66.29,173.68z"/>
		<path class="st60" d="M-27.26,176.69c-2.94-2.06-6.6,0.16-9.59-1.61C-33.66,175.71-29.93,173.06-27.26,176.69z"/>
		<path class="st16" d="M-63.09,168.92c0-1.96,0-3.93,0-5.89c0.36-0.01,0.72-0.02,1.08-0.03c0,2.92,0,5.84,0,8.76
			c-0.83-0.46-0.95-1.28-1.05-2.1C-63.14,169.41-63.15,169.16-63.09,168.92z"/>
		<path class="st61" d="M75.84,153.81c-1.67-0.24-3.83,0.33-3.89-2.48c-0.05-2.25,1.13-2.86,3.12-2.5
			C69.83,151.34,74.68,152.29,75.84,153.81z"/>
		<path class="st62" d="M-110.11,169.91c-1.98-1.76-4.42-1.05-6.69-1.24c-0.44-0.11-0.56-0.37-0.38-0.78
			c1.7-0.41,3.64,0.46,5.16-0.93c0.21-0.49,0.54-0.61,1.01-0.36c0.31,0.05,0.63,0.07,0.94,0.05
			C-110.09,167.73-110.1,168.82-110.11,169.91z"/>
		<path class="st26" d="M98.75,163.76c-1.62-0.34-3.58,0.71-4.83-1.16C95.78,161.95,97.78,160.71,98.75,163.76z"/>
		<path class="st63" d="M-127.96,167.73c-0.35,0.04-0.7,0.09-1.06,0.13c-1.65,1.38-3.65,0.71-5.5,0.93
			c-0.24,0.02-0.47,0.03-0.71,0.05c-1.02-0.82-0.62-1.51,0.2-2.16C-132.7,167.24-130.11,165.95-127.96,167.73z"/>
		<path class="st64" d="M207.87,164.7c2.21,2.09-0.53,2.9-1.23,4.12c-0.22,0.39-0.54-0.73-0.71-1.24
			C206.13,166.32,206.84,165.4,207.87,164.7z"/>
		<path class="st65" d="M-114.97,180.67c1.73-1.19,2.26-3.02,2.97-4.94c0,1.64,0,3.29,0,4.93
			C-112.99,180.67-113.98,180.67-114.97,180.67z"/>
		<path class="st26" d="M81.16,145.7c-2.79-0.12-1.97-2.26-2.16-3.84C83.16,141.21,80.27,144.52,81.16,145.7z"/>
		<path class="st66" d="M-124.19,169.85c2.73,0.2,5.6-0.98,8.17,0.83C-118.78,170.75-121.57,171.14-124.19,169.85z"/>
		<path class="st67" d="M122.62,163.97c0.08-2.53-1.92-0.54-2.68-1.23c1.17-1.16,2.61-1.08,4.01-0.69c0.87,0.24,1.23,1.06,0.69,1.87
			C124.07,164.79,123.31,164.47,122.62,163.97z"/>
		<path class="st61" d="M71.98,143.77c0.39,0.03,0.79,0.06,1.18,0.09c-0.32,1.23-0.92,2.49,1.16,2.83c1.3,0.21,2.14,0.85,0.75,2.14
			c-0.56-1.28-1.71-1.1-2.78-1.11C70.95,146.5,71.46,145.13,71.98,143.77z"/>
		<path class="st0" d="M277.94,166.56c-1.39-0.04-2.39,1.49-3.9,0.95c-0.81-0.26-1.33-0.69-0.98-1.64c0.99-0.03,1.98-0.06,2.98-0.09
			C276.67,166.04,277.31,166.3,277.94,166.56z"/>
		<path class="st68" d="M93.04,141.89c-0.52,1.86,1.19,2.71,1.85,4.03c-0.46,0.54-0.8,1.32-1.75,0.97
			c-0.37-0.37-0.75-0.75-1.12-1.12C92.13,144.42,91.41,142.84,93.04,141.89z"/>
		<path class="st54" d="M98.93,169.69c0.01-0.32,0.03-0.64,0.07-0.95c0.59-0.66,1.18-1.33,1.77-1.99c0.01,1.67,0.02,3.34,0.03,5.02
			C99.22,171.95,99.09,170.81,98.93,169.69z"/>
		<path class="st69" d="M81.81,153.04c0.43-0.62,0.57-1.69,1.53-1.57c0.34,0.04,0.55,1.01,0.82,1.55c0.04,0.77,0.06,1.69-0.87,1.81
			C82.08,154.99,81.83,154.04,81.81,153.04z"/>
		<path class="st70" d="M259.03,125.77c1.76,1.84,0.73,4.09,0.9,6.16C258.71,130.01,259.15,127.85,259.03,125.77z"/>
		<path class="st0" d="M112.89,144.78c0,1.99,0,3.99,0,5.98c-0.38-0.03-0.76-0.06-1.14-0.1c-0.32-1.54-0.46-3.07,0.1-4.58
			C112.2,145.65,112.55,145.21,112.89,144.78z"/>
		<path class="st71" d="M58.71,162.78c-1.84,0-3.67,0-5.51,0C55.04,161.19,56.88,161.59,58.71,162.78z"/>
		<path class="st72" d="M86.97,148.78c0,2.01,0,4.03,0.01,6.04c-1.83-1.63-0.51-4.01-1.4-5.87
			C86.04,148.89,86.51,148.83,86.97,148.78z"/>
		<path class="st66" d="M-129,168.76c0,0.31,0.01,0.61,0.01,0.92c-2.12,0-4.32,0.63-6.24-0.84c0.18-0.02,0.35-0.07,0.51-0.14
			C-132.8,168.09-130.9,167.99-129,168.76z"/>
		<path class="st16" d="M275.06,125.64c-0.11,0.76-0.22,1.52-0.46,3.08c-0.76-2.32-0.98-3.73,0.35-4.93
			C274.99,124.4,275.03,125.02,275.06,125.64z"/>
		<path class="st16" d="M260.13,56.83c-0.3-0.08-0.67-0.07-0.89-0.25c-0.49-0.41-0.25-0.76,0.28-0.77c1.21-0.03,2.53-0.35,3.43,0.88
			C262.02,56.74,261.07,56.78,260.13,56.83z"/>
		<path class="st16" d="M278.06,147.64c-0.12,0.77-0.23,1.53-0.46,3.07c-0.75-2.31-0.98-3.73,0.35-4.92
			C277.99,146.4,278.03,147.02,278.06,147.64z"/>
		<path class="st73" d="M111.85,146.08c-0.03,1.53-0.07,3.06-0.1,4.58c-0.25,0.03-0.48,0.09-0.71,0.18
			c0.01-1.74,0.02-3.49,0.03-5.23C111.33,145.77,111.59,145.93,111.85,146.08z"/>
		<path class="st16" d="M335.01,188.73c0-1.63,0-3.26,0.01-4.9C336.87,185.47,336.86,187.1,335.01,188.73z"/>
		<path class="st74" d="M43.91,152.51c-1.02,0.87-2.05,1.74-3.07,2.6C40.04,152.98,40.04,152.98,43.91,152.51z"/>
		<path class="st0" d="M71.91,97.84C70.12,97.86,70.17,97.86,70,99c-0.46,2.95,1.34,6.19-1.08,8.9C49.33,97.07,49.37,73.38,69,60.64
			c2.99,0.78,2.2,3.32,2.3,5.28c0.29,5.58-0.29,11.21,0.49,16.97c9.2-5.5,12.93-5.29,19.12,0.66c-0.58-4.63-0.16-9.53-0.32-14.42
			c0.77-2.84-1.72-6.62,2.45-8.47c10.54,3.76,18.46,19.8,13.5,32.41c-2.56,6.52-6.66,11.52-12.3,15.44
			c-2.04-1.79-1.19-4.22-1.46-6.41c-0.21-1.72,0.56-3.62-0.87-5.14c-4.14,5.47-9.24,7.74-15.92,4.82
			C74.64,100.46,73.27,99.15,71.91,97.84z"/>
		<path class="st75" d="M91.87,69.82c0,5.3,0,10.61,0,16.52c-2.86-3.52-5.84-6.33-10.32-6.2c-4.4,0.13-7.78,2.29-11.59,5.73
			c0-6.69,0.07-13.38-0.05-20.06c-0.03-1.72,0.76-3.69-0.91-5.16c0.01-3.25-0.04-6.5,0.04-9.75c0.03-1.23,0.31-2.56,1.9-0.96
			c-0.21,1.34,0.34,2.62,0.37,3.92c0.08,3.45,1.96,4.56,5.13,4.47c3.14-0.08,6.29-0.06,9.43,0.02c1.81,0.04,3.67-0.07,5.21,1.18
			C92.21,62.89,90.78,66.45,91.87,69.82z"/>
		<path class="st76" d="M90.99,59.76c-5.62,0.05-11.25-0.1-16.85,0.24c-3.3,0.2-4.63-0.83-4.08-4.06c0.34-2-1.09-4.26,0.88-6.02
			c1.49,2.97,3.72,5.02,7.08,5.67c1.97-0.53,3.95-0.42,5.93-0.07c2.9-0.89,5.27-2.39,6.24-5.47C92.79,53.1,91.27,56.48,90.99,59.76z
			"/>
		<path class="st77" d="M90.99,59.76c-0.08-3.25,0.93-6.6-0.79-9.72c1.66,0.25,1.64,0.26,1.8,1.39c0.43,3.06-0.76,6.31,1.05,9.22
			c-2.14,2.83-0.07,6.2-1.17,9.17C90.45,66.57,91.48,63.1,90.99,59.76z"/>
		<path class="st26" d="M70.06,112.73c0.03,0.6,0.05,1.19,0.08,1.79c0,4.73,0,9.45,0,14.18C69.6,123.37,67.8,117.97,70.06,112.73z"
			/>
		<path class="st26" d="M131.17,91.97c-2.05-2.58-1-5.4-0.36-8.18C130.92,86.51,131.04,89.23,131.17,91.97
			C131.16,91.96,131.17,91.97,131.17,91.97z"/>
		<path class="st26" d="M83.96,55.52c-1.97,0.74-3.94,0.81-5.93,0.07C79.99,54.3,81.96,54.38,83.96,55.52z"/>
		<path class="st78" d="M-144.09,166.73c-7.66,0.01-15.31-0.04-22.97,0.06c-2.58,0.04-3.99-0.51-3.98-3.55
			c0.09-29.96,0.08-59.91,0.11-89.87c0-0.28,0.28-0.56,0.93-1.79c0,2.45,0,4.02,0,5.6c0,27.79,0.08,55.59-0.09,83.38
			c-0.03,4.19,1.24,5.28,5.34,5.33c6.89,0.08,13.87-1.28,20.69,0.8C-144.06,166.69-144.09,166.73-144.09,166.73z"/>
		<path class="st16" d="M-145.47,72.58c-6.78,0-13.56,0-20.33,0c0-0.17,0-0.33,0-0.5c6.92,0,13.84,0,20.75,0
			C-145.19,72.25-145.33,72.41-145.47,72.58z"/>
		<path class="st16" d="M309.85,58.09c0,33.45,0,66.89,0,100.34c-0.16,0-0.33,0-0.49,0c0-33.51,0-67.02,0-100.53
			C309.52,57.96,309.69,58.03,309.85,58.09z"/>
		<path class="st16" d="M305.47,55.16c1.68-0.39,2.68-0.75,3.63,0.18C308.01,55.95,307.01,55.93,305.47,55.16z"/>
		<path class="st79" d="M-132.24,164.88c-4.51,0.17-2.33-3.11-2.63-5.11c1.58,2.05,3.44,3.73,5.9,4.82
			C-130.06,164.69-131.15,164.79-132.24,164.88z"/>
		<path class="st80" d="M-123.95,165.97c-1-0.11-2-0.23-2.99-0.34c3.55-1.82,7.24-0.49,11.13-0.8c-1.07,1.44-2.35,0.71-3.37,1.03
			C-120.76,166.51-122.35,166.34-123.95,165.97z"/>
		<path class="st16" d="M-111.98,68.59c2.3,0.1,4.61,0.21,6.91,0.31C-107.44,70.14-109.76,70.56-111.98,68.59z"/>
		<path class="st16" d="M-124.03,67.72c1.98,0.07,3.97,0.14,5.95,0.21C-120.11,69.19-122.1,69.31-124.03,67.72z"/>
		<path class="st81" d="M-111.02,166.59c-0.34,0.12-0.67,0.24-1.01,0.36c-0.64-0.11-1.28-0.21-1.92-0.32
			c0.82-0.91,1.63-1.83,2.53-2.83C-110.53,164.53-111.22,165.66-111.02,166.59z"/>
		<path class="st56" d="M-123.95,165.97c1.59-0.04,3.18-0.08,4.77-0.11c0.12,0.27,0.26,0.54,0.42,0.79
			C-120.51,166.62-122.37,167.35-123.95,165.97z"/>
		<path class="st82" d="M273.06,165.87c0.33,0.55,0.65,1.09,0.98,1.64c-2.13,0.1-4.37,1.03-6.28-0.75
			C269.34,165.36,271.24,165.85,273.06,165.87z"/>
		<path class="st16" d="M245.97,165.52c-3.91,0-7.81,0-11.72,0c0-0.15-0.01-0.29-0.01-0.44c3.91,0,7.81,0,11.72,0
			C245.96,165.22,245.97,165.37,245.97,165.52z"/>
		<path class="st83" d="M217.08,162.9c1.34-1.85,2.68-3.71,4.92-6.81c0,6.51,0.03,11.76-0.02,17.01c-0.01,1.5-1.16,1.82-2.41,1.83
			c-2.93,0.01-5.86,0-8.79,0c-0.43-2.79,2.2-3.94,2.35-6.11C213.76,166.39,215.11,164.44,217.08,162.9z"/>
		<path class="st84" d="M217.08,162.9c-0.91,2.24-2.09,4.3-3.95,5.92C211.5,166.38,213.32,163.66,217.08,162.9z"/>
		<path class="st85" d="M-57.02,156.88c2.81,6.16,6.99,11.42,10.84,16.91c-1.59,1.32-10.36,2.14-11.63,1.08
			c-0.56-0.46-0.66-1.11-0.67-1.77c-0.01-5.11-0.1-10.23,0.06-15.34C-58.39,156.99-57.79,156.69-57.02,156.88z"/>
		<path class="st60" d="M-57.02,156.88c-2.55,5.47-0.75,11.2-0.9,16.81c-0.01,0.37,0.93,1.13,1.37,1.1
			c3.46-0.28,7.14,1.52,10.37-0.99c-0.32,1.85-0.32,1.94-1.46,1.96c-3.8,0.04-7.59,0.01-11.39,0.01c-0.03-1.31-0.05-2.62-0.08-3.92
			c0-0.37,0-0.74,0.01-1.11c0.01-4.64,0.02-9.27,0.04-13.91C-58.34,155.78-57.66,155.69-57.02,156.88z"/>
		<path class="st16" d="M-108.15,53.2c1.14-0.61,2.15-0.59,3.29,0C-106,54.01-107.01,54.01-108.15,53.2z"/>
		<path class="st29" d="M-72.24,37.51c-7.58,0-15.15,0-22.73,0c0-0.17,0-0.33,0-0.5c7.58,0,15.16,0,22.75,0
			C-72.23,37.18-72.23,37.34-72.24,37.51z"/>
		<path class="st16" d="M-126.21,176.32c1.52-0.84,2.86-0.72,4.41-0.11C-123.31,177.05-124.65,176.93-126.21,176.32z"/>
		<path class="st7" d="M-60.44,91.48c0,15.19,0,30.38,0,45.57c-0.33,0-0.67,0.01-1,0.01c0-15.19,0-30.39,0-45.58
			C-61.1,91.48-60.77,91.48-60.44,91.48z"/>
		<path class="st16" d="M302.73,174.52c-4.23,0-8.47,0-12.7,0c0-0.17,0-0.33,0-0.5c4.25,0,8.49,0,12.74,0
			C302.75,174.18,302.74,174.35,302.73,174.52z"/>
		<ellipse class="st16" cx="237.52" cy="56.26" rx="4.87" ry="0.34"/>
		<path class="st86" d="M79.5,163.96c1.92,3.45,2.15,6.34-0.19,9.68C77.37,170.21,77.27,167.33,79.5,163.96z"/>
		<path class="st87" d="M56.5,173.6c-0.99-1.2-0.85-2.41-0.08-3.58c0.06-0.09,1.06,0.16,1.19,0.45
			C58.21,171.78,58.33,173.04,56.5,173.6z"/>
		<path class="st88" d="M43.04,174.67c-5.03-0.48-1.5-2.98-1.6-5.12c2.72,1.6,0.84,3.68,1.49,5.23
			C42.93,174.78,43.04,174.67,43.04,174.67z"/>
		<path class="st89" d="M41.78,167.47c-0.55-0.71-1.16-1.22-1.41-1.87c-0.44-1.12,0.8-1.42,1.27-1.32c0.65,0.14,1.61,0.66,1.35,1.65
			C42.83,166.46,42.25,166.88,41.78,167.47z"/>
		<path class="st0" d="M98.93,169.69c0.63,0.69,1.25,1.38,1.88,2.07c0.13,0.99,0.25,1.99,0.38,2.98c-1.32-0.92-2.22-2.8-4.34-1.84
			c0,0,0.01,0,0.01,0c-1.19-2.29,1.09-2.34,2.08-3.23L98.93,169.69z"/>
		<path class="st54" d="M98.95,169.67c-0.55,1.17-2.19,1.63-2.08,3.23C95.55,170.19,95.64,170.04,98.95,169.67z"/>
		<path class="st90" d="M107.01,143.62c2.82,2.73,1.98,5.83,0.92,8.95c-2.18,0.66-2.08-0.92-1.91-2.15
			C106.32,148.15,104.95,145.62,107.01,143.62z"/>
		<path class="st91" d="M93.13,146.89c0.58-0.32,1.17-0.65,1.75-0.97c0.11,0.62,0.23,1.23,0.34,1.85c-0.16,1.12-0.48,2.79-1.64,2.43
			C92.19,149.77,93.21,148.05,93.13,146.89z"/>
		<path class="st66" d="M-117.19,167.88c0.14,0.25,0.27,0.51,0.38,0.78c-3.06-0.17-6.22,0.94-9.15-0.76
			C-123.04,167.9-120.11,167.89-117.19,167.88z"/>
		<path class="st26" d="M71.98,143.77c0.1,1.31,0.21,2.63,0.31,3.94c-0.73,0.01-1.46,0.02-2.18,0.03c-0.15-0.32-0.15-0.65,0-0.97
			C70.73,145.77,71.36,144.77,71.98,143.77z"/>
		<path class="st16" d="M-129,168.76c-1.91-0.02-3.81-0.04-5.72-0.06c1.68-1.78,3.79-0.66,5.7-0.84
			C-129.01,168.16-129,168.46-129,168.76z"/>
	</g>
</g>
</svg>
