<?xml version="1.0" encoding="utf-8"?>
<!-- Generator: Adobe Illustrator 23.0.0, SVG Export Plug-In . SVG Version: 6.00 Build 0)  -->
<svg version="1.1" id="Capa_1" xmlns="http://www.w3.org/2000/svg" xmlns:xlink="http://www.w3.org/1999/xlink" x="0px" y="0px"
	 viewBox="0 0 147.4 209.76" style="enable-background:new 0 0 147.4 209.76;" xml:space="preserve">
<style type="text/css">
	.st0{fill:#0F264E;}
	.st1{fill:#FEFEFE;}
	.st2{fill:#FEFEFD;}
	.st3{fill:#E7E7EA;}
	.st4{fill:#F5F5F7;}
	.st5{fill:#F5F5F6;}
	.st6{fill:#FDFEFD;}
	.st7{fill:#FDFEFE;}
</style>
<g>
	<g>
		<path class="st0" d="M68.2,47.12c3.96,0,7.92,0,11.88,0c1.7,0.33,3.44,0.2,5.14,0.45c8.05,1.18,15.32,4.35,21.99,8.86
			c11.53,7.81,19.27,18.48,23.47,31.77c1,3.18,1.12,6.45,1.6,9.68c0,4.92,0,9.84,0,14.76c-0.36,5.17-1.53,10.13-3.6,14.88
			c-7.84,18.04-21.27,29.59-40.27,34.66c-2.38,0.63-4.86,0.37-7.25,0.85c-4.8,0-9.6,0-14.4,0c-3.35-0.51-6.72-0.76-10.01-1.82
			c-8.79-2.82-16.54-7.39-23.15-13.75c-8.18-7.87-13.63-17.41-16.32-28.48c-0.6-2.45-0.47-4.97-0.92-7.43c0-4.32,0-8.64,0-12.96
			c0.45-4.46,1.05-8.87,2.64-13.12c5.41-14.44,14.82-25.32,28.48-32.52c3.84-2.03,7.88-3.49,12.05-4.68
			C62.38,47.47,65.33,47.64,68.2,47.12z"/>
		<path class="st1" d="M68.2,47.12c-1.5,0.75-3.18,0.67-4.78,0.98c-24.24,4.74-42.69,23.89-46.45,48.21
			c-0.12,0.76,0.11,1.67-0.61,2.29c0-16.74,0.01-33.48-0.03-50.22c0-1.07,0.22-1.29,1.29-1.29C34.48,47.14,51.34,47.12,68.2,47.12z"
			/>
		<path class="st1" d="M132.28,97.88c-0.83-1.97-0.9-4.12-1.38-6.17c-5.34-22.84-24.41-40.45-47.61-43.96
			c-1.07-0.16-2.24,0.08-3.21-0.63c16.95,0,33.9,0.01,50.85-0.03c1.12,0,1.38,0.25,1.38,1.38
			C132.27,64.94,132.28,81.41,132.28,97.88z"/>
		<path class="st1" d="M16.36,111.56c0.96,2.62,1.09,5.42,1.76,8.12c5.35,21.7,24.22,39.11,46.35,42.7
			c0.76,0.12,1.68-0.06,2.29,0.66c-16.35,0-32.7-0.01-49.05,0.03c-1.13,0-1.38-0.26-1.38-1.38
			C16.37,144.98,16.36,128.27,16.36,111.56z"/>
		<path class="st1" d="M81.16,163.04c2.64-0.57,5.34-0.97,7.92-1.74c23.49-6.98,37.7-22.49,42.57-46.54
			c0.14-0.71-0.06-1.56,0.63-2.12c0,16.35-0.01,32.7,0.03,49.05c0,1.12-0.26,1.38-1.38,1.38
			C114.34,163.03,97.75,163.04,81.16,163.04z"/>
		<path class="st1" d="M78.09,115.49c9.06,0,18.12,0.03,27.18-0.04c1.44-0.01,1.81,0.4,1.77,1.8c-0.09,3.07-0.02,3.08-3.17,3.08
			c-17.1,0-34.2,0-51.29,0c-1.93,0-4.06-0.12-5.07,1.92c-1.18,2.4-1.31,4.99-0.04,7.45c0.78,1.5,2.27,2.11,3.85,2.34
			c1.48,0.22,2.98,0.35,4.47,0.36c16.44,0.02,32.88,0.04,49.31-0.03c1.65-0.01,2,0.47,1.93,2c-0.12,2.88-0.03,2.88-2.83,2.88
			c-16.2,0-32.4,0-48.59,0c-2.65,0-5.26-0.16-7.77-1.15c-3.65-1.46-5.57-4.18-5.93-8.04c-0.17-1.79-0.16-3.59,0.26-5.36
			c1.09-4.7,4.11-7.17,8.93-7.19C60.09,115.46,69.09,115.49,78.09,115.49z"/>
		<path class="st1" d="M72.92,112.2c-7.92,0-15.83-0.04-23.75,0.04c-1.47,0.01-2.1-0.32-1.86-1.84c0.08-0.53,0.05-1.08,0.01-1.62
			c-0.05-0.69,0.21-0.99,0.92-0.93c0.42,0.04,0.84,0,1.26,0c15.41,0,30.82,0,46.23-0.01c0.95,0,1.91-0.14,2.86-0.24
			c0.55-0.06,1.04-0.31,1.43-0.69c1.76-1.76,1.44-4,1.19-6.1c-0.21-1.75-1.47-2.79-3.18-3.28c-1.46-0.42-2.95-0.44-4.45-0.44
			c-14.75,0-29.5,0-44.26-0.02c-0.65,0-1.7,0.43-1.89-0.41c-0.27-1.19-0.28-2.5,0.05-3.72c0.1-0.38,0.64-0.2,0.98-0.2
			c15.71-0.01,31.42-0.07,47.13,0.04c4.13,0.03,7.91,1.3,9.51,5.68c1.11,3.02,0.97,6.16-0.25,9.13c-1.59,3.9-5.03,4.66-8.73,4.68
			c-7.73,0.05-15.47,0.01-23.2,0.01C72.92,112.25,72.92,112.22,72.92,112.2z"/>
		<path class="st2" d="M74.74,73.04c6.72,0,13.43,0.06,20.15-0.04c1.57-0.02,1.58,0.69,1.53,1.81c-0.05,1.05,0.29,2.02-1.53,2.01
			c-13.13-0.11-26.26-0.09-39.39-0.12c-3.08-0.01-4.23,0.97-4.44,3.88c-0.22,3,1.04,4.68,3.85,5.04c0.95,0.12,1.91,0.12,2.87,0.12
			c12.23,0.01,24.47,0.04,36.7-0.04c1.59-0.01,1.97,0.39,2.01,1.97c0.05,1.74-0.64,1.89-2.08,1.89c-12.23-0.05-24.46-0.02-36.7-0.04
			c-1.25,0-2.52-0.08-3.75-0.3C47.81,88.14,45,80.25,49,75.43c1.5-1.81,3.54-2.37,5.77-2.38C61.43,73.03,68.08,73.04,74.74,73.04z"
			/>
		<path class="st3" d="M73.29,99.98c-7.08,0-14.15,0-21.23,0c-0.42,0-0.84,0-1.26-0.01c-0.4,0-0.69-0.15-0.72-0.6
			c-0.03-0.57,0.31-0.72,0.8-0.71c0.3,0,0.6,0,0.9,0c14.39,0,28.79,0,43.18,0c0.3,0,0.6,0.01,0.9,0c0.48-0.01,0.81,0.11,0.79,0.7
			c-0.02,0.61-0.43,0.62-0.87,0.62c-0.36,0-0.72,0-1.08,0C87.57,99.98,80.43,99.98,73.29,99.98z"/>
		<path class="st4" d="M73.42,101.84c7.26,0,14.51-0.01,21.77,0.02c0.51,0,1.48-0.5,1.44,0.67c-0.04,1.11-0.98,0.65-1.52,0.65
			c-14.45,0.03-28.9,0.02-43.35,0.02c-0.36,0-0.72,0-1.08-0.02c-0.46-0.03-0.57-0.34-0.58-0.74c-0.02-0.48,0.26-0.61,0.67-0.61
			c0.42,0,0.84,0,1.26,0C59.15,101.84,66.28,101.84,73.42,101.84z"/>
		<path class="st5" d="M74.61,84.57c-6.05,0-12.11,0.01-18.16-0.03c-0.51,0-1.51,0.51-1.46-0.67c0.05-1.07,0.98-0.66,1.54-0.66
			c12.05-0.02,24.09-0.02,36.14,0c0.55,0,1.5-0.41,1.43,0.74c-0.07,1.11-1,0.59-1.52,0.59C86.59,84.59,80.6,84.57,74.61,84.57z"/>
		<path class="st1" d="M77.93,123.48c-8.15,0-16.3,0.01-24.45-0.02c-0.49,0-1.36,0.44-1.44-0.5c-0.09-1.16,0.91-0.69,1.44-0.69
			c16.3-0.03,32.61-0.03,48.91,0c0.53,0,1.53-0.46,1.44,0.69c-0.07,0.94-0.95,0.5-1.44,0.5C94.24,123.49,86.08,123.48,77.93,123.48z
			"/>
		<path class="st2" d="M77.95,126.8c-8.15,0-16.3,0.01-24.44-0.02c-0.52,0-1.53,0.5-1.46-0.66c0.06-0.95,0.94-0.49,1.43-0.49
			c16.3-0.03,32.59-0.03,48.89,0c0.51,0,1.52-0.5,1.46,0.63c-0.04,0.94-0.93,0.52-1.43,0.52C94.25,126.81,86.1,126.8,77.95,126.8z"
			/>
		<path class="st6" d="M77.94,129.2c8.15,0,16.29-0.01,24.44,0.02c0.49,0,1.38-0.45,1.44,0.48c0.08,1.14-0.93,0.67-1.45,0.68
			c-16.29,0.02-32.59,0.02-48.88,0c-0.5,0-1.38,0.42-1.44-0.51c-0.07-1.15,0.94-0.65,1.45-0.65
			C61.65,129.19,69.79,129.2,77.94,129.2z"/>
		<path class="st6" d="M73.24,104.96c7.2,0,14.39,0,21.59,0c0.42,0,0.84,0,1.26,0.01c0.35,0.01,0.52,0.19,0.55,0.55
			c0.03,0.47-0.19,0.64-0.63,0.63c-0.42-0.01-0.84,0-1.26,0c-14.27,0-28.55,0-42.82,0c-0.24,0-0.48,0.03-0.72-0.01
			c-0.42-0.06-1.07,0.25-1.09-0.53c-0.03-0.89,0.69-0.61,1.17-0.66c0.36-0.03,0.72-0.01,1.08-0.01
			C59.32,104.96,66.28,104.96,73.24,104.96z"/>
		<path class="st7" d="M74.69,79.28c-5.88,0-11.75,0-17.63,0c-0.42,0-0.84,0-1.26-0.01c-0.45-0.01-0.85-0.08-0.82-0.68
			c0.03-0.5,0.39-0.53,0.75-0.54c0.36-0.01,0.72-0.01,1.08-0.01c11.87,0,23.74,0,35.62,0c0.36,0,0.72,0.01,1.08,0
			c0.46,0,0.63,0.22,0.61,0.66c-0.02,0.36-0.18,0.55-0.54,0.55c-0.42,0.01-0.84,0.01-1.26,0.01C86.44,79.28,80.56,79.28,74.69,79.28
			z"/>
		<path class="st7" d="M74.68,81.8c-6.06,0-12.11,0.01-18.17-0.02c-0.54,0-1.53,0.44-1.5-0.66c0.03-0.93,0.92-0.54,1.43-0.54
			c12.05-0.02,24.11-0.02,36.16,0.01c0.52,0,1.55-0.51,1.46,0.64c-0.07,1.02-1.03,0.54-1.58,0.55C86.56,81.82,80.62,81.8,74.68,81.8
			z"/>
	</g>
</g>
</svg>
